<svg xmlns="http://www.w3.org/2000/svg" width="62" height="62" viewBox="0 0 62 62" fill="none">
  <path d="M42.5088 19.2586C43.0547 18.739 43.7811 18.4517 44.5347 18.4574C45.2884 18.4631 46.0104 18.7613 46.5483 19.2892C47.0862 19.8171 47.3981 20.5333 47.418 21.2867C47.4379 22.0401 47.1644 22.7718 46.6551 23.3274L31.1938 42.6636C30.928 42.95 30.6071 43.1798 30.2504 43.3393C29.8937 43.4988 29.5085 43.5848 29.1178 43.592C28.7271 43.5992 28.339 43.5276 27.9766 43.3814C27.6143 43.2352 27.2851 43.0175 27.0088 42.7411L16.7556 32.4879C16.47 32.2218 16.241 31.901 16.0822 31.5445C15.9233 31.188 15.8379 30.8031 15.831 30.4129C15.8241 30.0227 15.8959 29.6351 16.0421 29.2732C16.1883 28.9113 16.4058 28.5826 16.6818 28.3066C16.9578 28.0306 17.2865 27.8131 17.6484 27.6669C18.0103 27.5207 18.3979 27.449 18.7881 27.4558C19.1783 27.4627 19.5631 27.5481 19.9196 27.707C20.2761 27.8658 20.597 28.0949 20.8631 28.3804L28.9773 36.4908L42.4352 19.3439C42.4594 19.3141 42.4853 19.2856 42.5127 19.2586H42.5088Z" fill="white"/>
</svg>
