<svg xmlns="http://www.w3.org/2000/svg" width="28" height="28" viewBox="0 0 28 28" fill="none">
  <path d="M14.0003 1.66675C4.75099 1.66675 1.66699 4.75075 1.66699 14.0001C1.66699 23.2494 4.75099 26.3334 14.0003 26.3334C23.2497 26.3334 26.3337 23.2494 26.3337 14.0001" stroke="#f1f1f1" stroke-width="1.5" stroke-linecap="round" stroke-linejoin="round"/>
  <path fill-rule="evenodd" clip-rule="evenodd" d="M24.0379 3.73843V3.73843C22.7139 2.56643 20.6912 2.6891 19.5192 4.0131C19.5192 4.0131 13.6939 10.5931 11.6739 12.8771C9.6512 15.1598 11.1339 18.3131 11.1339 18.3131C11.1339 18.3131 14.4725 19.3704 16.4645 17.1198C18.4579 14.8691 24.3125 8.2571 24.3125 8.2571C25.4845 6.9331 25.3605 4.91043 24.0379 3.73843Z" stroke="#f1f1f1" stroke-width="1.5" stroke-linecap="round" stroke-linejoin="round"/>
  <path d="M18.0122 5.73438L22.8055 9.97837" stroke="#f1f1f1" stroke-width="1.5" stroke-linecap="round" stroke-linejoin="round"/>
</svg>
