<?xml version="1.0" encoding="UTF-8"?><svg id="Layer_2" xmlns="http://www.w3.org/2000/svg" width="400.08" height="413.75" viewBox="0 0 400.08 413.75"><defs><style>.cls-1{fill:#4ba2b6;}.cls-1,.cls-2,.cls-3,.cls-4{stroke-width:0px;}.cls-2{fill:#103040;}.cls-3{fill:#fff;}.cls-4{fill:#f5f6f9;}</style></defs><g id="Layer_1-2"><path class="cls-2" d="m261.27,134.97c-.88,1.39-.47,2.85-.47,4.21,0,36.32.08,72.63-.05,108.95-.01,3.7,1.14,4.91,4.61,4.37.84-.13,1.72-.03,2.58-.03,7.55-.02,10.95,3.83,9.93,11.26-.64,4.66-3,6.79-7.7,6.79-49.09.03-98.18.05-147.27.05-5.49,0-8.38-3-8.45-8.55-.07-5.94,3.06-9.43,8.54-9.53q10.15-.2,10.15-10.38c-.02-27.99-.03-55.98-.09-83.97-.01-6.46-.35-12.91-.27-19.37.04-3.23-.66-3.45-3.56-2.15-16.49,7.37-33.22,7.68-47.67-3.61-23.66-18.49-29.73-44.69-13.07-71.61,3.35-5.42,7.6-10.11,12.7-13.91,1.88-1.4,2.4-2.88,2.39-5.04-.06-11.34-.03-22.68,0-34.02.01-6.74,1.6-8.34,8.39-8.34C161.88.05,231.78.02,301.69,0c6.51,0,8.22,1.64,8.22,8.07,0,11.34.03,22.68-.18,34.02-.05,2.72.76,4.41,2.91,6.09,10.5,8.19,17.9,18.56,20.74,31.74,5.95,27.57-9.87,52.57-36.6,60.08-11.65,3.27-23.65,2.52-34.31-4.69-.31-.21-.76-.22-1.2-.34Zm-19.85,9.88c.77-18.49.07-36.98.31-55.47.04-2.77-1.69-2.44-3.41-2.44-27.54-.02-55.07,0-82.61-.14-3.2-.02-3.73,1.17-3.7,3.99.12,12.91-.01,25.81.06,38.72.03,5.14-.51,10.31.45,15.44-.31,4.42-.88,8.84-.88,13.26,0,26.98.12,53.95.24,80.93.02,4.28-1.45,10.07.73,12.45,2.51,2.74,8.39.46,12.77.92,3.42.36,4.23-.85,4.21-4.2-.15-32.72-.12-65.43-.1-98.15,0-2.18-.3-4.24-1.02-6.27,1.26-1.46.96-3.26.96-4.94.05-9.46-.08-18.93.06-28.39.09-6,4.13-9.95,9.65-9.85,5.89.1,9.21,3.64,9.25,9.96.07,9.32.04,18.64.17,27.96.03,2.09-.61,4.3.71,6.26-.51,2.38-.99,4.73-.99,7.2.01,17.63-.09,35.25-.1,52.88,0,14.62.16,29.24.02,43.85-.03,3.09.85,3.96,3.82,3.7,3.13-.27,6.33-.31,9.45,0,3.5.36,4.55-.65,4.54-4.34-.11-32.39,0-64.78.08-97.16,0-2.04-.44-3.97-.93-5.91.79-1.63.48-3.39.48-5.08.03-9.89-.06-19.79.02-29.68.04-5.81,3.48-9.4,8.83-9.52,5.74-.13,9.76,3.64,9.94,9.51.13,4.15-.08,8.32.04,12.47.22,7.43-.65,14.89.47,22.3-.65,3.7-.48,7.43-.48,11.16.02,30.42.12,60.84-.09,91.25-.03,4.31,1.23,5.46,5.23,5.01,2.83-.32,5.75-.29,8.6,0,3.21.32,4.05-.72,4.02-3.98-.16-23.53-.05-47.06-.13-70.59-.04-11.03.62-22.09-.68-33.1Zm-45.45-91.98s0,.05,0,.07c-23.39,0-46.78-.03-70.17.02-5.29.01-10.6-.3-15.87.64-14.82,2.66-25.14,11.55-30.56,24.96-5.03,12.43-2.1,24.52,6.65,34.88,12.2,14.46,35.07,13.61,44.8-1.61,4.92-7.69,4.5-17.26-1.05-24.11-4.07-5.02-10.16-6.19-14.85-2.84-4.8,3.43-4.56,8.79.87,11.01,4.22,1.73,3.52,4.2,2.02,7.07-1.55,2.96-4.02,4.67-7.47,5.08-9.05,1.08-17.49-8.11-16.56-18.17,1.05-11.36,11.65-20.67,24.02-20.88,8.61-.15,17.22-.06,25.83-.06,44.05,0,88.11.03,132.16.04,10.67,0,18.43,4.65,22.84,14.45,3.43,7.64.82,17.31-5.77,21.98-5.87,4.17-13.62,3.31-17.29-1.91-2.7-3.84-2.33-5.29,1.84-7.28,5.91-2.82,6.35-7.8,1-11.57-2.35-1.65-4.88-2.18-7.74-1.49-7.78,1.89-13.23,11.63-11.3,20.56,4.72,21.76,31.18,24.49,44.18,14.16,16.49-13.11,17.49-37.42,2.55-52.28-8.89-8.84-19.53-12.72-31.79-12.74-26.12-.05-52.23-.01-78.35-.01Zm.74-18.21v-.11c27.84,0,55.67.03,83.51-.03,3.68,0,8.49,1.62,10.75-.7,2.23-2.31.28-7.11.72-10.78.47-3.87-.79-4.96-4.8-4.95-57.39.14-114.79.09-172.18.1-4,0-9.26-1.41-11.68.58-2.82,2.31-.4,7.8-.98,11.85-.52,3.61,1.1,4.12,4.27,4.11,30.13-.11,60.26-.06,90.39-.06Z"/><path class="cls-4" d="m195.98,52.88c26.12,0,52.23-.03,78.35.01,12.26.02,22.9,3.9,31.79,12.74,14.94,14.86,13.94,39.17-2.55,52.28-13,10.34-39.46,7.61-44.18-14.16-1.94-8.93,3.52-18.67,11.3-20.56,2.86-.7,5.39-.16,7.74,1.49,5.35,3.76,4.92,8.75-1,11.57-4.16,1.98-4.53,3.44-1.84,7.28,3.67,5.22,11.42,6.08,17.29,1.91,6.58-4.68,9.2-14.34,5.77-21.98-4.41-9.81-12.18-14.45-22.84-14.45-44.05,0-88.11-.03-132.16-.04-8.61,0-17.22-.09-25.83.06-12.36.21-22.97,9.52-24.02,20.88-.93,10.06,7.5,19.25,16.56,18.17,3.45-.41,5.92-2.12,7.47-5.08,1.5-2.87,2.2-5.34-2.02-7.07-5.43-2.23-5.67-7.59-.87-11.01,4.69-3.35,10.78-2.19,14.85,2.84,5.55,6.86,5.97,16.42,1.05,24.11-9.73,15.22-32.6,16.07-44.8,1.61-8.75-10.37-11.67-22.45-6.65-34.88,5.42-13.41,15.75-22.3,30.56-24.96,5.26-.95,10.58-.63,15.87-.64,23.39-.05,46.78-.02,70.17-.02,0-.02,0-.05,0-.07Z"/><path class="cls-1" d="m152.54,144.95c-.96-5.12-.42-10.29-.45-15.44-.08-12.91.06-25.81-.06-38.72-.03-2.83.5-4.01,3.7-3.99,27.53.15,55.07.12,82.61.14,1.72,0,3.45-.33,3.41,2.44-.24,18.49.45,36.98-.31,55.47-6.71-5.65-10.07-5.6-16.47.25-1.13-7.41-.26-14.86-.47-22.3-.12-4.15.08-8.32-.04-12.47-.18-5.87-4.2-9.64-9.94-9.51-5.35.12-8.78,3.71-8.83,9.52-.07,9.89.01,19.79-.02,29.68,0,1.7.3,3.45-.48,5.08-7.67-5.95-9.05-5.97-15.89-.23-1.32-1.96-.68-4.17-.71-6.26-.12-9.32-.1-18.64-.17-27.96-.05-6.32-3.37-9.86-9.25-9.96-5.52-.1-9.56,3.85-9.65,9.85-.14,9.46-.02,18.93-.06,28.39,0,1.68.3,3.48-.96,4.94-5.8-4.95-9.96-4.67-15.94,1.06Z"/><path class="cls-4" d="m196.71,34.66c-30.13,0-60.26-.04-90.39.06-3.17.01-4.79-.5-4.27-4.11.58-4.05-1.84-9.54.98-11.85,2.42-1.99,7.68-.58,11.68-.58,57.39,0,114.79.04,172.18-.1,4.01,0,5.28,1.08,4.8,4.95-.45,3.66,1.51,8.47-.72,10.78-2.25,2.33-7.06.7-10.75.7-27.84.06-55.67.03-83.51.03v.11Z"/><path class="cls-4" d="m189.28,144.88c6.84-5.74,8.22-5.72,15.89.23.49,1.94.94,3.87.93,5.91-.08,32.39-.19,64.78-.08,97.16.01,3.69-1.04,4.69-4.54,4.34-3.12-.32-6.32-.27-9.45,0-2.97.25-3.85-.61-3.82-3.7.14-14.62-.03-29.23-.02-43.85,0-17.63.11-35.25.1-52.88,0-2.47.48-4.83.99-7.2Z"/><path class="cls-4" d="m152.54,144.95c5.98-5.74,10.14-6.01,15.94-1.06.73,2.03,1.03,4.09,1.02,6.27-.02,32.72-.05,65.43.1,98.15.02,3.35-.79,4.56-4.21,4.2-4.38-.46-10.26,1.82-12.77-.92-2.18-2.38-.71-8.17-.73-12.45-.11-26.98-.23-53.95-.24-80.93,0-4.42.57-8.84.88-13.26Z"/><path class="cls-4" d="m224.96,145.1c6.4-5.85,9.76-5.9,16.47-.25,1.3,11.01.64,22.06.68,33.09.08,23.53-.03,47.06.13,70.59.02,3.26-.81,4.3-4.02,3.98-2.84-.28-5.76-.32-8.6,0-4,.46-5.26-.69-5.23-5.01.21-30.42.11-60.84.09-91.25,0-3.73-.17-7.46.48-11.16Z"/><path class="cls-3" d="m69.23,323.96c-3.67,11.56-9.78,29.89-12.89,38.23-2.89,7.67-6.22,20.67-14.78,24.34-13,5.33-18.34-15.89-22-24.12-4.56-10-8.11-21.89-11.89-32.12-2-5.89-6.78-18.45,1.89-21.11.89-.22,1.89-.56,2.78-.67,1,0,1.89.11,2.89.67.78.33,1.56.67,2.11,1.22.56.78,1.11,1.45,1.67,2.22.44,1,.78,1.78,1.11,2.56.33,1,.89,1.89,1.11,2.56l.67,1.89,16,45.67,15.78-45.56.78-1.89c.22-.67.56-1.56.89-2.56.33-.78.67-1.56,1.22-2.44.44-.78,1-1.56,1.56-2.33.44-.56,1.22-1,1.78-1.33,1.11-.56,2.11-.67,2.89-.67.89.11,1.89.44,2.78.67,2.78.78,4.11,2.67,4.56,4.89.67,3.33,0,7.11-.89,9.89Z"/><path class="cls-3" d="m94.57,322.07l-.22,17.45h4.45c6-.11,10.22-.11,16,0h.56c1.78,0,3.45.11,5.11.11,1.78.11,3.44.56,5,1,1.33.44,2.33,1.11,3.11,2,.78,1,1.11,2.11,1.11,3.22,0,.78,0,1.78-.22,2.56-.11.78-.56,1.56-1.44,2.22-.44.56-1.22.89-2.11,1.11-.78.22-1.78.44-2.89.56-1,.22-2,.33-3.11.33h-5.22l-20.56.11-.22,21.78,22.12.22h5.22c1.11,0,2.22,0,3.11.11,1.11.22,2.11.33,3,.56.89.33,1.67.78,2.22,1.22.78.78,1.22,1.45,1.44,2.33.11.67.22,1.56.11,2.45,0,1.22-.33,2.22-1.11,3.22-.78.89-1.78,1.67-3.11,2-1.56.67-3.22,1-5.11,1-1.67.11-3.44.11-5.11.22h-.67c-5.78.11-11.78.11-18,0-5.78-.11-6.33-.11-11-.11-1.56.11-3-.11-4.22-.89-.78-.45-1.45-1.11-1.89-2.11-.22-.22-.33-.56-.33-.67-.11-.22-.33-.45-.45-.67-.22-.78-.44-1.56-.44-2.33-.11-.67-.22-1.44-.33-2.22v-1.78c0-.56.11-1.22.11-1.78v-8.67l.22-16v-14.78c0-5.33.11-9,.22-13.89v-.56c.11-1.56.22-3,.22-4.45.11-1.56.56-3,1.22-4.33.56-1.11,1.22-2.11,2.33-2.67,1.11-.67,2.11-1,3.45-1,.56,0,.89,0,1.33.11v-.11c5.33,0,5.67,0,11.78-.11,5.89-.11,11-.11,16.67,0h.44c1.67.11,3.45.11,5.11.22,1.67,0,3.33.44,4.89,1,1.22.33,2.33,1,3.11,1.89.67,1,1,2,1,3.11,0,.89,0,1.78-.22,2.44-.11.89-.56,1.56-1.33,2.33-.56.33-1.22.78-2.11,1.11-.89.22-1.89.33-2.78.44-1.11.22-2.11.22-3.22.22h-5l-22.23.11v.33Z"/><path class="cls-3" d="m198.04,369.86c-4.78,16.67-31.23,22.45-46.34,14.11-4.78-2.67-8.11-6.56-10.45-11.33-1.67-3.33-1-9.11,3.67-10.22,3.11-.67,7.67-.11,9.45,3.67,1.56,3.11,4.89,5.78,8.33,7.45,9.78,3.33,21-1.78,21-10.33,0-7-4.22-9-10.56-10.56-7-1.44-14.78-.89-21.56-3.89-13.56-5.67-14.22-24.89-4.45-34.23,4.78-4.22,11.45-5.89,19.45-6.22,8.89-.33,18.67,1.78,23.89,6.22,3.78,3,8.89,10.56,3.22,14-4.67,3-8.56-1.78-11.67-4-4-3-10.67-3.89-15.78-3.33-6.45.78-11.67,4.22-11.11,10.89.33,4.78,5.45,6.33,9.78,6.89,6.56.89,13.45.78,19.78,3.22,6.45,2.56,11.33,6.89,13.22,12.89,1.44,4.22,1.44,10.78.11,14.78Z"/><path class="cls-3" d="m266.05,315.18c0,.89-.11,1.89-.22,2.67-.22.78-.67,1.56-1.44,2.33-.67.45-1.56.78-2.45,1-1,.33-2,.44-3.22.67-1,.11-2.11.11-3.22.11h-5.67c-2.67.11-5.22.11-7.78.11.22,9.11-.11,20.23-.11,44.67v8.45c0,.67,0,1.11.11,1.67,0,.56,0,1.11-.11,1.78-.11.67-.22,1.44-.33,2.33,0,.67-.22,1.33-.44,2.11-.33.33-.44.56-.44.67l-.33.67c-.44.89-1.22,1.56-2.11,2.11-1.56.78-3.44,1-5.45.56-1.22-.11-2.22-.44-2.89-1-.67-.67-1.11-1.22-1.45-2-.44-.89-.67-1.56-.78-2.33-.22-.67-.33-1.56-.33-2.11v-57.12c-1.78,0-12.67-.11-14.67-.44-.89-.11-3.22-.44-4.33-.78-1.67-.44-2.78-1.11-3.67-2.11-.78-.89-1.22-2-1.22-3.22,0-.89,0-1.78.22-2.56.22-.78.78-1.56,1.78-2.22.56-.44,2-1.22,3.22-1.56.89-.33,2.11-.56,3.33-.67s2.33-.11,3.67-.11c5.22,0,9.67,0,14.78-.11,8.56-.11,17.11,0,25.56.22,1.89.11,3.67.33,5.45,1.11,1.33.44,2.56,1.11,3.33,2.11.78.89,1.22,1.89,1.22,3Z"/><path class="cls-3" d="m329.28,382.53c0,.89-.22,1.67-.78,2.45-.45.67-1.22,1.44-2.22,1.89-1.89,1.11-3.78,1.44-5.89,1.11-.89-.22-1.89-.67-2.78-1.45-.22-.22-.44-.33-.56-.56-.11-.11-.33-.44-.55-.56-.67-.67-1.11-1.44-1.56-2.11-.33-.67-.67-1.33-1.11-2.11-.33-.56-.67-1.11-.78-1.67-.22-.56-.44-1.22-.56-1.78l-2.33-5.45c-10.11,0-20.45.11-30.56,0l-2.33,5.45c-.22.56-.33,1.22-.56,1.78-.22.56-.44,1.11-.78,1.67-.45.78-.78,1.44-1.22,2.11-.33.67-.78,1.44-1.44,2.11-.22.11-.45.44-.56.56-.11.22-.33.33-.56.56-.89.78-1.89,1.22-2.78,1.45-2.11.33-4,0-5.89-1.11-1-.45-1.78-1.22-2.22-1.89-.56-.78-.78-1.56-.78-2.45,0-1,.11-1.78.22-2.67.11-.67.33-1.44.56-2,.22-.67.33-.89.33-1l23.12-56.9.67-1.78c.33-.89.78-1.56,1.11-2.56.33-.89.67-1.67,1.22-2.56.44-.89,1.11-1.67,1.67-2.33.56-.67,1.22-1.11,1.89-1.45,2.11-.78,5.11-.78,7.22,0,.67.33,1.33.78,1.89,1.45.56.67,1.11,1.44,1.67,2.33.56.89.89,1.67,1.22,2.56.33,1,.78,1.67,1.11,2.56l.67,1.78,23.12,56.9c0,.11.11.33.33,1,.22.56.44,1.33.56,2,.11.89.22,1.67.22,2.67Zm-26.56-29.89c-1.89-4.22-3.89-8.89-6.11-13.67-.56-1.33-1.22-2.78-1.78-4.11-.44,1.33-1.11,2.78-1.67,4.11-2.22,4.78-4.22,9.45-6.11,13.67l-2,4.89h19.67l-2-4.89Z"/><path class="cls-3" d="m395.3,384.64c-.33.89-.89,1.44-1.56,2-.67.44-1.56.89-2.44,1.22-1.11.33-2.22.56-3.45.33-1.22-.11-2.22-.56-3.11-1.33-1.33-1.11-2.22-2.11-3.11-3.45-.67-1.22-1.67-2.67-2.44-4.33l-12.34-23.45c-1.22,0-2.44.11-3.56.22-3.11.22-5.78,0-8.67.11h-2.11v20.11c0,1.11-.11,2.11-.11,3.33,0,.67-.11,2.11-.22,3.11-.22,1.67-1.33,3.56-3.11,4.67-1.56,1-3.56,1.22-5.67.78-1.11-.22-1.89-.56-2.78-1.11-.56-.45-1-1.22-1.33-1.89-.33-.78-.56-1.67-.78-2.33-.22-.78-.33-1.33-.33-2.11v-63.12c0-.89.11-1.89.22-2.67.11-.89.45-1.78.78-2.44.22-.78.56-1.45,1.11-1.89.89-.89,2.56-1.67,6.11-1.56,6.56.11,13.22,0,19.67.33,4.33.22,9.45.78,13.56,2.44,1.22.44,2.56,1,3.67,1.56,1.45.78,2.45,1.45,3.33,2.33,5.11,4.67,7.89,11.89,7.89,18.67,0,7.89-3.67,15.22-11.89,18.45-.33.22-.89.33-1.22.44l10.22,20.56,1,1.78c.33.56.78,1.45,1.11,2.11.45.78.78,1.67,1.22,2.44.22.89.44,1.89.56,2.56.11.78,0,1.56-.22,2.11Zm-27.56-41.67c5.22,0,10.45-4,10.78-9,.56-7.33-4.45-10.89-11.67-11.22-4.33-.22-9.78-.22-14.33-.22.22,6.11,0,11.89,0,20.45h15.22Z"/></g></svg>