<?xml version="1.0" encoding="UTF-8"?><svg id="Layer_2" xmlns="http://www.w3.org/2000/svg" width="1104.56" height="319.95" viewBox="0 0 1104.56 319.95"><defs><style>.cls-1{fill:#4ba2b6;}.cls-1,.cls-2,.cls-3,.cls-4{stroke-width:0px;}.cls-2{fill:#103040;}.cls-3{fill:#f5f6f9;}.cls-4{fill:#003142;}</style></defs><g id="Layer_1-2"><path class="cls-2" d="m686.52,150.58c-.69,1.09-.37,2.23-.37,3.29,0,28.39.06,56.78-.04,85.18,0,2.89.89,3.84,3.61,3.42.66-.1,1.34-.02,2.02-.02,5.9-.02,8.56,3,7.76,8.8-.5,3.65-2.34,5.31-6.02,5.31-38.38.02-76.76.04-115.14.04-4.29,0-6.56-2.34-6.61-6.68-.05-4.64,2.39-7.37,6.68-7.45q7.94-.16,7.93-8.12c-.02-21.88-.02-43.77-.07-65.65-.01-5.05-.27-10.1-.21-15.14.03-2.53-.51-2.7-2.78-1.68-12.89,5.76-25.97,6-37.27-2.82-18.5-14.46-23.25-34.94-10.22-55.99,2.62-4.24,5.94-7.91,9.93-10.87,1.47-1.1,1.88-2.25,1.87-3.94-.05-8.87-.02-17.73,0-26.6,0-5.27,1.25-6.52,6.56-6.52,54.65-.03,109.3-.05,163.96-.07,5.09,0,6.43,1.28,6.43,6.31,0,8.87.02,17.73-.14,26.6-.04,2.13.59,3.45,2.28,4.76,8.21,6.4,13.99,14.51,16.21,24.81,4.65,21.55-7.72,41.1-28.61,46.97-9.11,2.56-18.49,1.97-26.83-3.67-.24-.17-.6-.17-.94-.26Zm-15.52,7.73c.6-14.45.06-28.91.25-43.36.03-2.16-1.32-1.91-2.67-1.91-21.53-.02-43.05,0-64.58-.11-2.5-.01-2.91.91-2.89,3.12.1,10.09-.01,20.18.05,30.27.02,4.02-.4,8.06.35,12.07-.24,3.46-.69,6.91-.69,10.37,0,21.09.1,42.18.19,63.27.01,3.35-1.13,7.87.57,9.73,1.96,2.14,6.56.36,9.98.72,2.67.28,3.3-.66,3.29-3.28-.11-25.58-.1-51.16-.08-76.73,0-1.7-.23-3.32-.8-4.9.99-1.14.75-2.55.75-3.86.04-7.4-.06-14.8.05-22.19.07-4.69,3.23-7.78,7.55-7.7,4.6.08,7.2,2.84,7.24,7.78.06,7.29.03,14.57.13,21.86.02,1.63-.48,3.36.55,4.89-.4,1.86-.78,3.7-.78,5.63,0,13.78-.07,27.56-.08,41.34,0,11.43.13,22.86.02,34.28-.02,2.42.67,3.09,2.99,2.89,2.45-.21,4.95-.25,7.39,0,2.74.28,3.56-.51,3.55-3.39-.09-25.32,0-50.64.06-75.96,0-1.6-.34-3.1-.73-4.62.62-1.28.37-2.65.38-3.98.02-7.74-.05-15.47.01-23.21.03-4.55,2.72-7.35,6.9-7.45,4.49-.1,7.63,2.85,7.77,7.44.1,3.25-.06,6.5.03,9.75.17,5.81-.51,11.64.37,17.43-.51,2.89-.38,5.81-.38,8.73.01,23.78.09,47.56-.07,71.34-.02,3.37.96,4.27,4.09,3.91,2.21-.25,4.5-.23,6.72,0,2.51.25,3.16-.56,3.15-3.11-.13-18.4-.04-36.79-.1-55.19-.03-8.63.49-17.27-.53-25.87Zm-35.53-71.91s0,.04,0,.06c-18.29,0-36.57-.02-54.86.02-4.14,0-8.29-.24-12.4.5-11.58,2.08-19.65,9.03-23.89,19.51-3.93,9.72-1.64,19.17,5.2,27.27,9.54,11.3,27.42,10.64,35.03-1.26,3.84-6.01,3.52-13.49-.82-18.85-3.18-3.93-7.94-4.84-11.61-2.22-3.75,2.68-3.57,6.87.68,8.61,3.3,1.35,2.75,3.28,1.58,5.52-1.21,2.32-3.14,3.65-5.84,3.97-7.08.84-13.67-6.34-12.94-14.21.82-8.88,9.11-16.16,18.78-16.33,6.73-.11,13.46-.04,20.19-.04,34.44,0,68.88.02,103.32.03,8.34,0,14.41,3.63,17.86,11.3,2.68,5.97.64,13.53-4.51,17.19-4.59,3.26-10.65,2.59-13.52-1.49-2.11-3-1.82-4.14,1.43-5.69,4.62-2.2,4.97-6.1.78-9.04-1.83-1.29-3.81-1.71-6.05-1.16-6.08,1.48-10.35,9.09-8.83,16.08,3.69,17.02,24.37,19.15,34.54,11.07,12.89-10.25,13.68-29.25,1.99-40.87-6.95-6.91-15.27-9.94-24.85-9.96-20.42-.04-40.84-.01-61.25-.01Zm.58-14.24v-.08c21.76,0,43.52.02,65.29-.03,2.88,0,6.64,1.27,8.4-.55,1.75-1.8.22-5.56.57-8.42.37-3.02-.62-3.88-3.75-3.87-44.87.11-89.74.07-134.61.08-3.13,0-7.24-1.1-9.13.45-2.2,1.81-.31,6.1-.77,9.26-.4,2.82.86,3.22,3.34,3.21,23.56-.09,47.11-.05,70.67-.05Z"/><path class="cls-3" d="m635.47,86.39c20.42,0,40.84-.03,61.25.01,9.58.02,17.9,3.05,24.85,9.96,11.68,11.62,10.9,30.62-1.99,40.87-10.16,8.08-30.85,5.95-34.54-11.07-1.51-6.98,2.75-14.6,8.83-16.08,2.23-.54,4.21-.13,6.05,1.16,4.18,2.94,3.84,6.84-.78,9.04-3.26,1.55-3.54,2.69-1.43,5.69,2.87,4.08,8.93,4.75,13.52,1.49,5.15-3.66,7.19-11.21,4.51-17.19-3.44-7.67-9.52-11.3-17.86-11.3-34.44,0-68.88-.02-103.32-.03-6.73,0-13.46-.07-20.19.04-9.67.16-17.96,7.44-18.78,16.33-.73,7.87,5.87,15.05,12.94,14.21,2.7-.32,4.63-1.66,5.84-3.97,1.17-2.24,1.72-4.17-1.58-5.52-4.25-1.74-4.43-5.93-.68-8.61,3.67-2.62,8.43-1.71,11.61,2.22,4.34,5.36,4.67,12.84.82,18.85-7.61,11.9-25.49,12.56-35.03,1.26-6.84-8.11-9.12-17.55-5.2-27.27,4.24-10.49,12.31-17.43,23.89-19.51,4.12-.74,8.27-.49,12.4-.5,18.29-.04,36.57-.02,54.86-.02,0-.02,0-.04,0-.06Z"/><path class="cls-1" d="m601.51,158.38c-.75-4-.33-8.05-.35-12.07-.06-10.09.05-20.18-.05-30.27-.02-2.21.39-3.14,2.89-3.12,21.53.11,43.05.09,64.58.11,1.35,0,2.69-.26,2.67,1.91-.19,14.45.36,28.91-.24,43.37-5.24-4.42-7.87-4.38-12.88.19-.88-5.79-.2-11.62-.37-17.43-.1-3.25.07-6.5-.03-9.75-.14-4.59-3.29-7.54-7.77-7.44-4.18.1-6.87,2.9-6.9,7.45-.06,7.73,0,15.47-.01,23.21,0,1.33.24,2.7-.38,3.97-6-4.65-7.08-4.67-12.42-.18-1.03-1.53-.53-3.26-.55-4.89-.1-7.29-.08-14.57-.13-21.86-.04-4.94-2.63-7.7-7.24-7.78-4.32-.08-7.48,3.01-7.55,7.7-.11,7.4-.01,14.8-.05,22.19,0,1.32.23,2.72-.75,3.87-4.54-3.87-7.79-3.65-12.46.83Z"/><path class="cls-3" d="m636.05,72.15c-23.56,0-47.11-.03-70.67.05-2.48,0-3.74-.39-3.34-3.21.45-3.17-1.44-7.46.77-9.26,1.89-1.55,6-.45,9.13-.45,44.87,0,89.74.03,134.61-.08,3.14,0,4.13.85,3.75,3.87-.35,2.86,1.18,6.62-.57,8.42-1.76,1.82-5.52.54-8.4.55-21.76.05-43.52.03-65.29.03v.08Z"/><path class="cls-3" d="m630.24,158.33c5.35-4.49,6.42-4.47,12.42.18.39,1.52.73,3.02.73,4.62-.06,25.32-.15,50.64-.06,75.96,0,2.88-.81,3.67-3.55,3.39-2.44-.25-4.94-.21-7.39,0-2.32.2-3.01-.48-2.99-2.89.11-11.43-.02-22.86-.02-34.28,0-13.78.08-27.56.08-41.34,0-1.93.38-3.77.78-5.63Z"/><path class="cls-3" d="m601.51,158.38c4.67-4.49,7.93-4.7,12.46-.83.57,1.58.8,3.2.8,4.9-.02,25.58-.04,51.16.08,76.73.01,2.62-.62,3.56-3.29,3.28-3.42-.36-8.02,1.42-9.98-.72-1.7-1.86-.56-6.39-.57-9.73-.09-21.09-.18-42.18-.19-63.27,0-3.46.45-6.91.69-10.37Z"/><path class="cls-3" d="m658.13,158.5c5-4.57,7.63-4.61,12.88-.19,1.02,8.61.5,17.25.53,25.87.07,18.4-.03,36.79.1,55.19.02,2.55-.63,3.36-3.15,3.11-2.22-.22-4.51-.25-6.72,0-3.13.36-4.11-.54-4.09-3.91.17-23.78.09-47.56.07-71.34,0-2.92-.13-5.83.38-8.73Z"/><path class="cls-4" d="m177.49,89.75c-9.4,29.63-25.07,76.64-33.05,98-7.41,19.66-15.95,52.99-37.89,62.39-33.33,13.68-47.01-40.74-56.41-61.82-11.68-25.64-20.8-56.12-30.48-82.33-5.13-15.1-17.38-47.29,4.84-54.13,2.28-.57,4.84-1.42,7.12-1.71,2.56,0,4.84.28,7.41,1.71,1.99.85,3.99,1.71,5.41,3.13,1.42,1.99,2.85,3.7,4.27,5.7,1.14,2.56,1.99,4.56,2.85,6.55.85,2.56,2.28,4.84,2.85,6.55l1.71,4.84,41.03,117.09,40.46-116.81,1.99-4.84c.57-1.71,1.42-3.99,2.28-6.55.85-2,1.71-3.99,3.13-6.27,1.14-1.99,2.56-3.99,3.99-5.98,1.14-1.42,3.13-2.56,4.56-3.42,2.85-1.42,5.41-1.71,7.41-1.71,2.28.28,4.84,1.14,7.12,1.71,7.12,1.99,10.54,6.84,11.68,12.54,1.71,8.55,0,18.23-2.28,25.36Z"/><path class="cls-4" d="m242.45,84.91l-.57,44.73h11.4c15.38-.29,26.21-.29,41.03,0h1.42c4.56,0,8.83.28,13.11.28,4.56.29,8.83,1.42,12.82,2.56,3.42,1.14,5.98,2.85,7.98,5.13,1.99,2.56,2.85,5.41,2.85,8.26,0,2,0,4.56-.57,6.55-.29,2-1.42,3.99-3.7,5.7-1.14,1.42-3.13,2.28-5.41,2.85-1.99.57-4.56,1.14-7.41,1.42-2.56.57-5.13.85-7.98.85h-13.39l-52.71.29-.57,55.84,56.69.57h13.39c2.85,0,5.7,0,7.98.29,2.85.57,5.41.85,7.69,1.42,2.28.85,4.27,1.99,5.7,3.13,1.99,1.99,3.13,3.7,3.7,5.98.29,1.71.57,3.99.29,6.27,0,3.13-.86,5.7-2.85,8.26-1.99,2.28-4.56,4.27-7.98,5.13-3.99,1.71-8.26,2.56-13.11,2.56-4.27.28-8.83.28-13.11.57h-1.71c-14.81.29-30.2.29-46.15,0-14.81-.29-16.24-.29-28.21-.29-3.99.29-7.69-.28-10.83-2.28-1.99-1.14-3.7-2.85-4.84-5.41-.57-.57-.86-1.42-.86-1.71-.28-.57-.85-1.14-1.14-1.71-.57-1.99-1.14-3.99-1.14-5.98-.29-1.71-.57-3.7-.86-5.7v-4.56c0-1.42.29-3.13.29-4.56v-22.22l.57-41.03v-37.89c0-13.67.28-23.08.57-35.61v-1.42c.29-3.99.57-7.69.57-11.4.28-3.99,1.42-7.69,3.13-11.11,1.42-2.85,3.13-5.41,5.98-6.84,2.85-1.71,5.41-2.56,8.83-2.56,1.42,0,2.28,0,3.42.28v-.28c13.67,0,14.53,0,30.2-.29,15.1-.29,28.21-.29,42.74,0h1.14c4.27.29,8.83.29,13.1.57,4.27,0,8.55,1.14,12.54,2.56,3.13.85,5.98,2.56,7.98,4.84,1.71,2.56,2.56,5.13,2.56,7.98,0,2.28,0,4.56-.57,6.27-.28,2.28-1.42,3.99-3.42,5.98-1.42.85-3.13,1.99-5.41,2.85-2.28.57-4.84.85-7.12,1.14-2.85.57-5.41.57-8.26.57h-12.82l-56.98.29v.85Z"/><path class="cls-4" d="m507.69,207.41c-12.25,42.73-80.06,57.55-118.8,36.18-12.25-6.84-20.8-16.81-26.78-29.06-4.27-8.55-2.56-23.36,9.4-26.21,7.98-1.71,19.66-.29,24.22,9.4,3.99,7.98,12.54,14.81,21.37,19.09,25.07,8.55,53.85-4.56,53.85-26.5,0-17.95-10.83-23.08-27.07-27.07-17.95-3.7-37.89-2.28-55.27-9.97-34.76-14.53-36.47-63.82-11.4-87.75,12.25-10.83,29.34-15.1,49.86-15.95,22.79-.85,47.86,4.56,61.25,15.95,9.69,7.69,22.79,27.07,8.26,35.9-11.97,7.69-21.94-4.56-29.91-10.26-10.26-7.69-27.35-9.97-40.46-8.55-16.52,2-29.91,10.83-28.49,27.92.85,12.25,13.96,16.24,25.07,17.66,16.81,2.28,34.47,1.99,50.71,8.26,16.52,6.55,29.06,17.66,33.9,33.05,3.7,10.83,3.7,27.64.29,37.89Z"/><path class="cls-4" d="m923.08,239.89c0,2.28-.57,4.27-1.99,6.27-1.14,1.71-3.13,3.7-5.7,4.84-4.84,2.85-9.69,3.7-15.1,2.85-2.28-.57-4.84-1.71-7.12-3.7-.57-.57-1.14-.85-1.42-1.42-.29-.29-.85-1.14-1.42-1.42-1.71-1.71-2.85-3.7-3.99-5.41-.85-1.71-1.71-3.42-2.85-5.41-.85-1.42-1.71-2.85-1.99-4.27-.57-1.42-1.14-3.13-1.42-4.56l-5.98-13.96c-25.93,0-52.42.29-78.35,0l-5.98,13.96c-.57,1.42-.85,3.13-1.42,4.56-.57,1.42-1.14,2.85-2,4.27-1.14,1.99-1.99,3.7-3.13,5.41-.85,1.71-1.99,3.7-3.7,5.41-.57.29-1.14,1.14-1.42,1.42-.29.57-.85.85-1.42,1.42-2.28,1.99-4.84,3.13-7.12,3.7-5.41.85-10.26,0-15.1-2.85-2.56-1.14-4.56-3.13-5.7-4.84-1.42-1.99-2-3.99-2-6.27,0-2.56.29-4.56.57-6.84.29-1.71.85-3.7,1.42-5.13.57-1.71.85-2.28.85-2.56l59.26-145.87,1.71-4.56c.85-2.28,1.99-3.99,2.85-6.55.85-2.28,1.71-4.27,3.13-6.55,1.14-2.28,2.85-4.27,4.27-5.98,1.42-1.71,3.13-2.85,4.84-3.7,5.41-1.99,13.11-1.99,18.52,0,1.71.85,3.42,1.99,4.84,3.7,1.42,1.71,2.85,3.7,4.27,5.98s2.28,4.27,3.13,6.55c.85,2.56,1.99,4.27,2.85,6.55l1.71,4.56,59.26,145.87c0,.29.28.86.85,2.56.57,1.42,1.14,3.42,1.42,5.13.29,2.28.57,4.27.57,6.84Zm-68.09-76.64c-4.84-10.83-9.97-22.79-15.67-35.04-1.42-3.42-3.13-7.12-4.56-10.54-1.14,3.42-2.85,7.12-4.27,10.54-5.7,12.25-10.83,24.22-15.67,35.04l-5.13,12.54h50.43l-5.13-12.54Z"/><path class="cls-4" d="m1092.31,245.3c-.85,2.28-2.28,3.7-3.99,5.13-1.71,1.14-3.99,2.28-6.27,3.13-2.85.85-5.7,1.42-8.83.85-3.13-.28-5.7-1.42-7.98-3.42-3.42-2.85-5.7-5.41-7.98-8.83-1.71-3.13-4.27-6.84-6.27-11.11l-31.62-60.11c-3.13,0-6.27.29-9.12.57-7.98.57-14.81,0-22.22.28h-5.41v51.57c0,2.85-.29,5.41-.29,8.55,0,1.71-.28,5.41-.57,7.98-.57,4.27-3.42,9.12-7.98,11.97-3.99,2.56-9.12,3.13-14.53,1.99-2.85-.57-4.84-1.42-7.12-2.85-1.42-1.14-2.56-3.13-3.42-4.84-.85-1.99-1.42-4.27-1.99-5.98-.57-2-.86-3.42-.86-5.41V72.94c0-2.28.29-4.84.57-6.84.29-2.28,1.14-4.56,1.99-6.27.57-1.99,1.42-3.7,2.85-4.84,2.28-2.28,6.55-4.27,15.67-3.99,16.81.29,33.9,0,50.43.85,11.11.57,24.22,1.99,34.76,6.27,3.13,1.14,6.55,2.56,9.4,3.99,3.7,1.99,6.27,3.7,8.55,5.98,13.1,11.97,20.23,30.48,20.23,47.86,0,20.23-9.4,39.03-30.48,47.29-.85.57-2.28.86-3.13,1.14l26.21,52.71,2.56,4.56c.85,1.42,1.99,3.7,2.85,5.41,1.14,1.99,1.99,4.27,3.13,6.27.57,2.28,1.14,4.84,1.42,6.55.29,1.99,0,3.99-.57,5.41Zm-70.65-106.84c13.39,0,26.78-10.26,27.63-23.08,1.42-18.8-11.4-27.92-29.91-28.77-11.11-.57-25.07-.57-36.75-.57.57,15.67,0,30.48,0,52.42h39.03Z"/></g></svg>