<?xml version="1.0" encoding="UTF-8"?><svg id="Layer_2" xmlns="http://www.w3.org/2000/svg" width="404.03" height="96.03" viewBox="0 0 404.03 96.03"><defs><style>.cls-1{fill:#a293e2;}.cls-1,.cls-2,.cls-3,.cls-4{stroke-width:0px;}.cls-2{fill:#103040;}.cls-3{fill:#fff;}.cls-4{fill:#f5f6f9;}</style></defs><g id="Layer_1-2"><path class="cls-3" d="m149.47,26.94c-2.82,8.89-7.52,23-9.92,29.42-2.22,5.9-4.79,15.91-11.37,18.73-10,4.1-14.11-12.23-16.93-18.56-3.51-7.7-6.24-16.85-9.15-24.71-1.54-4.53-5.22-14.19,1.45-16.25.68-.17,1.45-.43,2.14-.51.77,0,1.45.09,2.22.51.6.26,1.2.51,1.62.94.43.6.85,1.11,1.28,1.71.34.77.6,1.37.86,1.97.26.77.68,1.45.85,1.97l.51,1.45,12.31,35.15,12.14-35.06.6-1.45c.17-.51.43-1.2.68-1.97.26-.6.51-1.2.94-1.88.34-.6.77-1.2,1.2-1.8.34-.43.94-.77,1.37-1.03.86-.43,1.62-.51,2.22-.51.68.09,1.45.34,2.14.51,2.14.6,3.16,2.05,3.51,3.76.51,2.57,0,5.47-.68,7.61Z"/><path class="cls-3" d="m168.97,25.48l-.17,13.43h3.42c4.62-.09,7.87-.09,12.31,0h.43c1.37,0,2.65.09,3.93.09,1.37.09,2.65.43,3.85.77,1.03.34,1.8.85,2.39,1.54.6.77.85,1.62.85,2.48,0,.6,0,1.37-.17,1.97-.08.6-.43,1.2-1.11,1.71-.34.43-.94.68-1.62.86-.6.17-1.37.34-2.22.43-.77.17-1.54.26-2.39.26h-4.02l-15.82.09-.17,16.76,17.02.17h4.02c.85,0,1.71,0,2.39.09.86.17,1.62.26,2.31.43.68.26,1.28.6,1.71.94.6.6.94,1.11,1.11,1.8.09.51.17,1.2.09,1.88,0,.94-.26,1.71-.86,2.48-.6.68-1.37,1.28-2.39,1.54-1.2.51-2.48.77-3.93.77-1.28.09-2.65.09-3.93.17h-.51c-4.45.09-9.06.09-13.85,0-4.45-.09-4.87-.09-8.47-.09-1.2.09-2.31-.09-3.25-.68-.6-.34-1.11-.85-1.45-1.62-.17-.17-.26-.43-.26-.51-.09-.17-.26-.34-.34-.51-.17-.6-.34-1.2-.34-1.8-.08-.51-.17-1.11-.26-1.71v-1.37c0-.43.08-.94.08-1.37v-6.67l.17-12.31v-11.37c0-4.1.09-6.93.17-10.69v-.43c.09-1.2.17-2.31.17-3.42.09-1.2.43-2.31.94-3.33.43-.86.94-1.62,1.79-2.05.86-.51,1.62-.77,2.65-.77.43,0,.68,0,1.03.09v-.09c4.1,0,4.36,0,9.06-.09,4.53-.09,8.47-.09,12.83,0h.34c1.28.09,2.65.09,3.93.17,1.28,0,2.57.34,3.76.77.94.26,1.8.77,2.39,1.45.51.77.77,1.54.77,2.39,0,.68,0,1.37-.17,1.88-.08.68-.43,1.2-1.03,1.8-.43.26-.94.6-1.62.85-.68.17-1.45.26-2.14.34-.86.17-1.62.17-2.48.17h-3.85l-17.1.09v.26Z"/><path class="cls-3" d="m248.58,62.25c-3.68,12.83-24.03,17.27-35.66,10.86-3.68-2.05-6.24-5.04-8.04-8.72-1.28-2.57-.77-7.01,2.82-7.87,2.39-.51,5.9-.09,7.27,2.82,1.2,2.39,3.76,4.45,6.41,5.73,7.52,2.57,16.16-1.37,16.16-7.95,0-5.39-3.25-6.93-8.12-8.12-5.39-1.11-11.37-.68-16.59-2.99-10.43-4.36-10.95-19.15-3.42-26.34,3.68-3.25,8.81-4.53,14.96-4.79,6.84-.26,14.37,1.37,18.38,4.79,2.91,2.31,6.84,8.12,2.48,10.77-3.59,2.31-6.58-1.37-8.98-3.08-3.08-2.31-8.21-2.99-12.14-2.57-4.96.6-8.98,3.25-8.55,8.38.26,3.68,4.19,4.87,7.53,5.3,5.04.68,10.35.6,15.22,2.48,4.96,1.97,8.72,5.3,10.18,9.92,1.11,3.25,1.11,8.29.08,11.37Z"/><path class="cls-3" d="m300.91,20.18c0,.68-.08,1.45-.17,2.05-.17.6-.51,1.2-1.11,1.8-.51.34-1.2.6-1.88.77-.77.26-1.54.34-2.48.51-.77.09-1.62.09-2.48.09h-4.36c-2.05.09-4.02.09-5.99.09.17,7.01-.09,15.56-.09,34.38v6.5c0,.51,0,.85.09,1.28,0,.43,0,.85-.09,1.37-.08.51-.17,1.11-.26,1.8,0,.51-.17,1.03-.34,1.62-.26.26-.34.43-.34.51l-.26.51c-.34.68-.94,1.2-1.62,1.62-1.2.6-2.65.77-4.19.43-.94-.09-1.71-.34-2.22-.77-.51-.51-.85-.94-1.11-1.54-.34-.68-.51-1.2-.6-1.8-.17-.51-.26-1.2-.26-1.62V25.82c-1.37,0-9.75-.09-11.29-.34-.68-.09-2.48-.34-3.33-.6-1.28-.34-2.14-.85-2.82-1.62-.6-.68-.94-1.54-.94-2.48,0-.68,0-1.37.17-1.97.17-.6.6-1.2,1.37-1.71.43-.34,1.54-.94,2.48-1.2.68-.26,1.62-.43,2.57-.51.94-.09,1.8-.09,2.82-.09,4.02,0,7.44,0,11.37-.09,6.58-.09,13.17,0,19.67.17,1.45.09,2.82.26,4.19.86,1.03.34,1.97.85,2.57,1.62.6.68.94,1.45.94,2.31Z"/><path class="cls-3" d="m349.56,72c0,.68-.17,1.28-.6,1.88-.34.51-.94,1.11-1.71,1.45-1.45.85-2.91,1.11-4.53.85-.68-.17-1.45-.51-2.14-1.11-.17-.17-.34-.26-.43-.43-.09-.09-.26-.34-.43-.43-.51-.51-.86-1.11-1.2-1.62-.26-.51-.51-1.03-.86-1.62-.26-.43-.51-.86-.6-1.28-.17-.43-.34-.94-.43-1.37l-1.8-4.19c-7.78,0-15.73.09-23.52,0l-1.8,4.19c-.17.43-.26.94-.43,1.37-.17.43-.34.85-.6,1.28-.34.6-.6,1.11-.94,1.62-.26.51-.6,1.11-1.11,1.62-.17.09-.34.34-.43.43-.08.17-.26.26-.43.43-.68.6-1.45.94-2.14,1.11-1.62.26-3.08,0-4.53-.85-.77-.34-1.37-.94-1.71-1.45-.43-.6-.6-1.2-.6-1.88,0-.77.09-1.37.17-2.05.08-.51.26-1.11.43-1.54.17-.51.26-.68.26-.77l17.79-43.78.51-1.37c.26-.68.6-1.2.86-1.97.26-.68.51-1.28.94-1.97.34-.68.86-1.28,1.28-1.8.43-.51.94-.85,1.45-1.11,1.62-.6,3.93-.6,5.56,0,.51.26,1.03.6,1.45,1.11.43.51.86,1.11,1.28,1.8s.68,1.28.94,1.97c.26.77.6,1.28.86,1.97l.51,1.37,17.79,43.78c0,.09.09.26.26.77.17.43.34,1.03.43,1.54.08.68.17,1.28.17,2.05Zm-20.44-23c-1.45-3.25-2.99-6.84-4.7-10.52-.43-1.03-.94-2.14-1.37-3.16-.34,1.03-.85,2.14-1.28,3.16-1.71,3.68-3.25,7.27-4.7,10.52l-1.54,3.76h15.13l-1.54-3.76Z"/><path class="cls-3" d="m400.36,73.62c-.26.68-.68,1.11-1.2,1.54-.51.34-1.2.68-1.88.94-.85.26-1.71.43-2.65.26-.94-.09-1.71-.43-2.39-1.03-1.03-.85-1.71-1.62-2.39-2.65-.51-.94-1.28-2.05-1.88-3.33l-9.49-18.04c-.94,0-1.88.09-2.74.17-2.39.17-4.45,0-6.67.09h-1.62v15.48c0,.85-.08,1.62-.08,2.57,0,.51-.09,1.62-.17,2.39-.17,1.28-1.03,2.74-2.39,3.59-1.2.77-2.74.94-4.36.6-.86-.17-1.45-.43-2.14-.85-.43-.34-.77-.94-1.03-1.45-.26-.6-.43-1.28-.6-1.8-.17-.6-.26-1.03-.26-1.62V21.89c0-.68.08-1.45.17-2.05.08-.68.34-1.37.6-1.88.17-.6.43-1.11.85-1.45.68-.68,1.97-1.28,4.7-1.2,5.04.09,10.18,0,15.14.26,3.33.17,7.27.6,10.43,1.88.94.34,1.97.77,2.82,1.2,1.11.6,1.88,1.11,2.57,1.8,3.93,3.59,6.07,9.15,6.07,14.37,0,6.07-2.82,11.71-9.15,14.19-.26.17-.68.26-.94.34l7.87,15.82.77,1.37c.26.43.6,1.11.86,1.62.34.6.6,1.28.94,1.88.17.68.34,1.45.43,1.97.08.6,0,1.2-.17,1.62Zm-21.21-32.07c4.02,0,8.04-3.08,8.29-6.93.43-5.64-3.42-8.38-8.98-8.64-3.33-.17-7.53-.17-11.03-.17.17,4.7,0,9.15,0,15.73h11.71Z"/><path class="cls-2" d="m58.43,44.33c-.25.4-.14.82-.14,1.22,0,10.49.02,20.99-.01,31.48,0,1.07.33,1.42,1.33,1.26.24-.04.5,0,.75,0,2.18,0,3.16,1.11,2.87,3.25-.18,1.35-.87,1.96-2.22,1.96-14.19,0-28.37.01-42.56.01-1.59,0-2.42-.87-2.44-2.47-.02-1.72.88-2.72,2.47-2.75q2.93-.06,2.93-3c0-8.09,0-16.18-.03-24.27,0-1.87-.1-3.73-.08-5.6.01-.93-.19-1-1.03-.62-4.77,2.13-9.6,2.22-13.77-1.04C-.34,38.42-2.09,30.85,2.72,23.07c.97-1.57,2.2-2.92,3.67-4.02.54-.4.69-.83.69-1.46-.02-3.28,0-6.55,0-9.83,0-1.95.46-2.41,2.42-2.41,20.2-.01,40.4-.02,60.6-.03,1.88,0,2.38.47,2.38,2.33,0,3.28,0,6.55-.05,9.83-.01.79.22,1.27.84,1.76,3.03,2.37,5.17,5.36,5.99,9.17,1.72,7.97-2.85,15.19-10.58,17.36-3.37.95-6.83.73-9.92-1.36-.09-.06-.22-.06-.35-.1Zm-5.74,2.86c.22-5.34.02-10.69.09-16.03.01-.8-.49-.71-.99-.71-7.96,0-15.91,0-23.87-.04-.92,0-1.08.34-1.07,1.15.04,3.73,0,7.46.02,11.19,0,1.49-.15,2.98.13,4.46-.09,1.28-.26,2.55-.25,3.83,0,7.8.04,15.59.07,23.39,0,1.24-.42,2.91.21,3.6.73.79,2.42.13,3.69.27.99.1,1.22-.24,1.22-1.21-.04-9.45-.04-18.91-.03-28.36,0-.63-.09-1.23-.3-1.81.36-.42.28-.94.28-1.43.01-2.73-.02-5.47.02-8.2.03-1.73,1.19-2.87,2.79-2.85,1.7.03,2.66,1.05,2.67,2.88.02,2.69.01,5.39.05,8.08,0,.6-.18,1.24.2,1.81-.15.69-.29,1.37-.29,2.08,0,5.09-.03,10.19-.03,15.28,0,4.22.05,8.45,0,12.67,0,.89.25,1.14,1.1,1.07.9-.08,1.83-.09,2.73,0,1.01.1,1.32-.19,1.31-1.25-.03-9.36,0-18.72.02-28.08,0-.59-.13-1.15-.27-1.71.23-.47.14-.98.14-1.47,0-2.86-.02-5.72,0-8.58.01-1.68,1.01-2.72,2.55-2.75,1.66-.04,2.82,1.05,2.87,2.75.04,1.2-.02,2.4.01,3.6.06,2.15-.19,4.3.14,6.44-.19,1.07-.14,2.15-.14,3.23,0,8.79.03,17.58-.03,26.37,0,1.25.35,1.58,1.51,1.45.82-.09,1.66-.08,2.48,0,.93.09,1.17-.21,1.16-1.15-.05-6.8-.01-13.6-.04-20.4-.01-3.19.18-6.38-.2-9.56Zm-13.13-26.58s0,.01,0,.02c-6.76,0-13.52,0-20.28,0-1.53,0-3.06-.09-4.58.19-4.28.77-7.26,3.34-8.83,7.21-1.45,3.59-.61,7.08,1.92,10.08,3.52,4.18,10.13,3.93,12.95-.46,1.42-2.22,1.3-4.99-.3-6.97-1.18-1.45-2.94-1.79-4.29-.82-1.39.99-1.32,2.54.25,3.18,1.22.5,1.02,1.21.58,2.04-.45.86-1.16,1.35-2.16,1.47-2.62.31-5.05-2.34-4.78-5.25.3-3.28,3.37-5.97,6.94-6.03,2.49-.04,4.98-.02,7.46-.02,12.73,0,25.46,0,38.19.01,3.08,0,5.33,1.34,6.6,4.18.99,2.21.24,5-1.67,6.35-1.7,1.2-3.94.96-5-.55-.78-1.11-.67-1.53.53-2.1,1.71-.81,1.84-2.26.29-3.34-.68-.48-1.41-.63-2.24-.43-2.25.55-3.82,3.36-3.26,5.94,1.36,6.29,9.01,7.08,12.77,4.09,4.76-3.79,5.05-10.81.74-15.11-2.57-2.55-5.64-3.67-9.19-3.68-7.55-.01-15.09,0-22.64,0Zm.21-5.26v-.03c8.04,0,16.09,0,24.13,0,1.06,0,2.45.47,3.11-.2.65-.67.08-2.06.21-3.11.14-1.12-.23-1.43-1.39-1.43-16.59.04-33.17.03-49.76.03-1.16,0-2.68-.41-3.38.17-.81.67-.12,2.25-.28,3.42-.15,1.04.32,1.19,1.23,1.19,8.71-.03,17.41-.02,26.12-.02Z"/><path class="cls-4" d="m39.56,20.61c7.55,0,15.09,0,22.64,0,3.54,0,6.62,1.13,9.19,3.68,4.32,4.29,4.03,11.32-.74,15.11-3.76,2.99-11.4,2.2-12.77-4.09-.56-2.58,1.02-5.4,3.26-5.94.83-.2,1.56-.05,2.24.43,1.55,1.09,1.42,2.53-.29,3.34-1.2.57-1.31.99-.53,2.1,1.06,1.51,3.3,1.76,5,.55,1.9-1.35,2.66-4.14,1.67-6.35-1.27-2.83-3.52-4.18-6.6-4.18-12.73,0-25.46,0-38.19-.01-2.49,0-4.98-.03-7.46.02-3.57.06-6.64,2.75-6.94,6.03-.27,2.91,2.17,5.56,4.78,5.25,1-.12,1.71-.61,2.16-1.47.43-.83.64-1.54-.58-2.04-1.57-.64-1.64-2.19-.25-3.18,1.35-.97,3.11-.63,4.29.82,1.6,1.98,1.72,4.74.3,6.97-2.81,4.4-9.42,4.64-12.95.46-2.53-3-3.37-6.49-1.92-10.08,1.57-3.88,4.55-6.44,8.83-7.21,1.52-.27,3.06-.18,4.58-.19,6.76-.01,13.52,0,20.28,0,0,0,0-.01,0-.02Z"/><path class="cls-1" d="m27.01,47.22c-.28-1.48-.12-2.97-.13-4.46-.02-3.73.02-7.46-.02-11.19,0-.82.14-1.16,1.07-1.15,7.96.04,15.91.03,23.87.04.5,0,1-.09.99.71-.07,5.34.13,10.69-.09,16.03-1.94-1.63-2.91-1.62-4.76.07-.33-2.14-.07-4.3-.14-6.44-.04-1.2.02-2.4-.01-3.6-.05-1.7-1.21-2.79-2.87-2.75-1.55.04-2.54,1.07-2.55,2.75-.02,2.86,0,5.72,0,8.58,0,.49.09,1-.14,1.47-2.22-1.72-2.62-1.72-4.59-.07-.38-.57-.2-1.21-.2-1.81-.04-2.69-.03-5.39-.05-8.08-.01-1.83-.97-2.85-2.67-2.88-1.6-.03-2.76,1.11-2.79,2.85-.04,2.73,0,5.47-.02,8.2,0,.49.09,1.01-.28,1.43-1.68-1.43-2.88-1.35-4.61.31Z"/><path class="cls-4" d="m39.78,15.34c-8.71,0-17.41-.01-26.12.02-.91,0-1.38-.14-1.23-1.19.17-1.17-.53-2.76.28-3.42.7-.57,2.22-.17,3.38-.17,16.59,0,33.17.01,49.76-.03,1.16,0,1.52.31,1.39,1.43-.13,1.06.44,2.45-.21,3.11-.65.67-2.04.2-3.11.2-8.04.02-16.09,0-24.13,0v.03Z"/><path class="cls-4" d="m37.63,47.2c1.98-1.66,2.37-1.65,4.59.07.14.56.27,1.12.27,1.71-.02,9.36-.05,18.72-.02,28.08,0,1.07-.3,1.36-1.31,1.25-.9-.09-1.83-.08-2.73,0-.86.07-1.11-.18-1.1-1.07.04-4.22,0-8.45,0-12.67,0-5.09.03-10.19.03-15.28,0-.71.14-1.4.29-2.08Z"/><path class="cls-4" d="m27.01,47.22c1.73-1.66,2.93-1.74,4.61-.31.21.59.3,1.18.3,1.81,0,9.45-.01,18.91.03,28.36,0,.97-.23,1.32-1.22,1.21-1.26-.13-2.96.53-3.69-.27-.63-.69-.21-2.36-.21-3.6-.03-7.8-.07-15.59-.07-23.39,0-1.28.17-2.55.25-3.83Z"/><path class="cls-4" d="m47.94,47.26c1.85-1.69,2.82-1.71,4.76-.07.38,3.18.18,6.38.2,9.56.02,6.8,0,13.6.04,20.4,0,.94-.23,1.24-1.16,1.15-.82-.08-1.67-.09-2.48,0-1.16.13-1.52-.2-1.51-1.45.06-8.79.03-17.58.03-26.37,0-1.08-.05-2.16.14-3.23Z"/></g></svg>