<?xml version="1.0" encoding="UTF-8"?><svg id="Layer_2" xmlns="http://www.w3.org/2000/svg" width="464.39" height="480.28" viewBox="0 0 464.39 480.28"><defs><style>.cls-1{fill:#a293e2;}.cls-1,.cls-2,.cls-3,.cls-4{stroke-width:0px;}.cls-2{fill:#103040;}.cls-3{fill:#f5f6f9;}.cls-4{fill:#003142;}</style></defs><g id="Layer_1-2"><path class="cls-2" d="m303.28,156.67c-1.02,1.61-.55,3.31-.55,4.89,0,42.15.09,84.31-.05,126.46-.01,4.29,1.32,5.7,5.35,5.07.98-.15,2-.03,3-.04,8.76-.02,12.71,4.45,11.52,13.07-.74,5.41-3.48,7.88-8.93,7.89-56.98.03-113.97.06-170.95.06-6.37,0-9.73-3.48-9.81-9.92-.08-6.89,3.55-10.94,9.92-11.07q11.78-.23,11.78-12.05c-.03-32.49-.03-64.98-.1-97.47-.02-7.49-.4-14.99-.31-22.48.05-3.75-.76-4-4.13-2.5-19.15,8.55-38.56,8.91-55.33-4.19-27.47-21.47-34.51-51.88-15.17-83.13,3.89-6.29,8.82-11.74,14.74-16.14,2.19-1.63,2.79-3.34,2.78-5.85-.07-13.16-.03-26.33,0-39.49.01-7.83,1.86-9.68,9.74-9.68C187.9.06,269.05.03,350.19,0c7.56,0,9.54,1.91,9.54,9.37,0,13.16.03,26.33-.21,39.49-.06,3.16.88,5.12,3.38,7.07,12.19,9.51,20.77,21.54,24.07,36.84,6.91,32-11.46,61.02-42.48,69.74-13.52,3.8-27.45,2.92-39.83-5.44-.36-.25-.89-.25-1.39-.39Zm-23.04,11.47c.89-21.46.09-42.92.36-64.38.04-3.21-1.96-2.83-3.96-2.83-31.96-.03-63.92,0-95.89-.16-3.72-.02-4.32,1.36-4.29,4.64.14,14.98-.02,29.96.07,44.95.04,5.97-.59,11.97.52,17.92-.36,5.13-1.02,10.26-1.02,15.39,0,31.31.14,62.63.28,93.94.02,4.97-1.68,11.69.85,14.45,2.91,3.18,9.74.53,14.82,1.07,3.97.42,4.91-.98,4.89-4.87-.17-37.98-.14-75.95-.12-113.93,0-2.53-.34-4.92-1.19-7.28,1.46-1.7,1.11-3.78,1.12-5.74.05-10.98-.09-21.97.07-32.95.1-6.97,4.8-11.55,11.2-11.43,6.83.12,10.69,4.22,10.74,11.56.08,10.82.05,21.64.2,32.45.03,2.42-.71,4.99.82,7.27-.59,2.76-1.15,5.49-1.15,8.36.01,20.46-.1,40.92-.11,61.38,0,16.97.19,33.94.02,50.9-.04,3.59.99,4.59,4.44,4.3,3.63-.31,7.34-.37,10.97,0,4.06.41,5.29-.76,5.27-5.04-.13-37.59,0-75.19.09-112.79,0-2.37-.51-4.61-1.08-6.86.91-1.9.56-3.93.56-5.9.03-11.48-.07-22.97.02-34.45.05-6.75,4.04-10.91,10.25-11.05,6.66-.15,11.33,4.23,11.54,11.04.15,4.82-.09,9.66.05,14.48.25,8.63-.76,17.28.55,25.88-.75,4.29-.56,8.63-.56,12.95.02,35.31.14,70.62-.11,105.92-.03,5,1.42,6.34,6.07,5.81,3.29-.37,6.68-.33,9.98,0,3.73.37,4.7-.83,4.67-4.62-.19-27.31-.05-54.63-.15-81.94-.05-12.81.72-25.64-.79-38.42Zm-52.76-106.76s0,.06,0,.09c-27.15,0-54.3-.03-81.45.03-6.14.01-12.31-.35-18.42.75-17.2,3.09-29.18,13.4-35.48,28.97-5.83,14.43-2.44,28.46,7.71,40.49,14.16,16.78,40.71,15.8,52-1.87,5.71-8.93,5.22-20.03-1.22-27.99-4.72-5.83-11.79-7.18-17.23-3.3-5.57,3.98-5.29,10.2,1.01,12.79,4.9,2.01,4.09,4.88,2.35,8.2-1.8,3.44-4.66,5.42-8.67,5.9-10.51,1.25-20.3-9.41-19.22-21.09,1.22-13.19,13.53-24,27.88-24.24,9.99-.17,19.99-.07,29.98-.06,51.14.01,102.27.03,153.41.04,12.38,0,21.4,5.39,26.51,16.78,3.98,8.87.95,20.09-6.69,25.52-6.81,4.84-15.81,3.85-20.07-2.22-3.13-4.45-2.7-6.14,2.13-8.44,6.86-3.27,7.37-9.06,1.16-13.43-2.72-1.91-5.66-2.53-8.98-1.73-9.03,2.2-15.36,13.5-13.11,23.87,5.48,25.26,36.19,28.43,51.28,16.43,19.14-15.22,20.3-43.43,2.96-60.68-10.32-10.26-22.67-14.76-36.9-14.79-30.31-.06-60.63-.02-90.94-.02Zm.85-21.14v-.12c32.31,0,64.62.03,96.93-.04,4.27,0,9.86,1.89,12.47-.82,2.59-2.68.32-8.26.84-12.51.55-4.49-.92-5.76-5.57-5.74-66.62.17-133.24.1-199.86.12-4.65,0-10.75-1.64-13.56.67-3.27,2.69-.46,9.05-1.14,13.75-.6,4.19,1.28,4.78,4.96,4.77,34.98-.13,69.95-.08,104.93-.08Z"/><path class="cls-3" d="m227.48,61.38c30.31,0,60.63-.04,90.94.02,14.23.03,26.58,4.53,36.9,14.79,17.34,17.25,16.18,45.47-2.96,60.68-15.09,12-45.8,8.83-51.28-16.43-2.25-10.37,4.09-21.67,13.11-23.87,3.32-.81,6.26-.19,8.98,1.73,6.21,4.37,5.71,10.15-1.16,13.43-4.83,2.3-5.26,3.99-2.13,8.44,4.26,6.06,13.26,7.06,20.07,2.22,7.64-5.43,10.68-16.65,6.69-25.52-5.11-11.39-14.13-16.78-26.51-16.78-51.14-.01-102.27-.03-153.41-.04-9.99,0-19.99-.11-29.98.06-14.35.24-26.66,11.05-27.88,24.24-1.08,11.68,8.71,22.35,19.22,21.09,4-.48,6.87-2.46,8.67-5.9,1.74-3.33,2.55-6.19-2.35-8.2-6.3-2.58-6.58-8.8-1.01-12.79,5.44-3.89,12.51-2.54,17.23,3.3,6.44,7.96,6.93,19.06,1.22,27.99-11.29,17.67-37.85,18.65-52,1.87-10.15-12.03-13.55-26.06-7.71-40.49,6.29-15.57,18.28-25.88,35.48-28.97,6.11-1.1,12.28-.73,18.42-.75,27.15-.06,54.3-.03,81.45-.03,0-.03,0-.06,0-.09Z"/><path class="cls-1" d="m177.06,168.26c-1.11-5.94-.48-11.94-.52-17.92-.09-14.98.07-29.97-.07-44.95-.03-3.28.58-4.66,4.29-4.64,31.96.17,63.92.14,95.89.16,2,0,4-.38,3.96,2.83-.28,21.46.53,42.93-.36,64.39-7.79-6.56-11.69-6.5-19.12.29-1.31-8.6-.3-17.25-.55-25.88-.14-4.82.1-9.66-.05-14.48-.21-6.82-4.88-11.19-11.54-11.04-6.21.14-10.2,4.31-10.25,11.05-.09,11.48.01,22.97-.02,34.45,0,1.97.35,4.01-.56,5.9-8.91-6.9-10.51-6.93-18.44-.26-1.53-2.27-.79-4.84-.82-7.27-.14-10.82-.11-21.64-.2-32.45-.06-7.34-3.91-11.44-10.74-11.56-6.41-.11-11.1,4.47-11.2,11.43-.16,10.98-.02,21.97-.07,32.95,0,1.95.34,4.04-1.12,5.74-6.73-5.75-11.56-5.43-18.5,1.23Z"/><path class="cls-3" d="m228.34,40.23c-34.98,0-69.95-.05-104.93.08-3.68.01-5.56-.58-4.96-4.77.67-4.7-2.13-11.07,1.14-13.75,2.81-2.31,8.91-.67,13.56-.67,66.62-.01,133.24.05,199.86-.12,4.66-.01,6.12,1.25,5.57,5.74-.52,4.25,1.75,9.83-.84,12.51-2.62,2.7-8.2.81-12.47.82-32.31.07-64.62.04-96.93.04v.12Z"/><path class="cls-3" d="m219.72,168.18c7.94-6.67,9.54-6.64,18.44.26.57,2.25,1.09,4.49,1.08,6.86-.09,37.6-.22,75.19-.09,112.79.01,4.28-1.21,5.45-5.27,5.04-3.62-.37-7.33-.31-10.97,0-3.45.29-4.47-.71-4.44-4.3.17-16.97-.03-33.93-.02-50.9,0-20.46.13-40.92.11-61.38,0-2.87.56-5.6,1.15-8.36Z"/><path class="cls-3" d="m177.06,168.26c6.94-6.66,11.77-6.98,18.5-1.23.84,2.35,1.19,4.75,1.19,7.28-.03,37.98-.05,75.95.12,113.93.02,3.89-.92,5.29-4.89,4.87-5.08-.54-11.91,2.11-14.82-1.07-2.53-2.76-.83-9.48-.85-14.45-.13-31.31-.27-62.63-.28-93.94,0-5.13.67-10.26,1.02-15.39Z"/><path class="cls-3" d="m261.13,168.43c7.42-6.79,11.33-6.85,19.12-.29,1.51,12.78.74,25.61.79,38.42.1,27.31-.04,54.63.15,81.94.03,3.78-.94,4.99-4.67,4.62-3.3-.33-6.69-.37-9.98,0-4.65.53-6.11-.81-6.07-5.81.25-35.31.13-70.62.11-105.92,0-4.33-.19-8.66.56-12.95Z"/><path class="cls-4" d="m80.37,376.05c-4.26,13.42-11.35,34.7-14.96,44.38-3.35,8.9-7.22,23.99-17.16,28.25-15.09,6.19-21.28-18.45-25.54-27.99-5.29-11.61-9.42-25.41-13.8-37.28-2.32-6.84-7.87-21.41,2.19-24.51,1.03-.26,2.19-.64,3.23-.77,1.16,0,2.19.13,3.35.77.9.39,1.81.77,2.45,1.42.64.9,1.29,1.68,1.93,2.58.52,1.16.9,2.06,1.29,2.97.39,1.16,1.03,2.19,1.29,2.97l.77,2.19,18.58,53.02,18.32-52.89.9-2.19c.26-.77.65-1.81,1.03-2.97.39-.9.77-1.81,1.42-2.84.52-.9,1.16-1.81,1.81-2.71.52-.64,1.42-1.16,2.06-1.55,1.29-.64,2.45-.77,3.35-.77,1.03.13,2.19.52,3.23.77,3.22.9,4.77,3.1,5.29,5.68.77,3.87,0,8.26-1.03,11.48Z"/><path class="cls-4" d="m109.78,373.85l-.26,20.25h5.16c6.97-.13,11.87-.13,18.58,0h.64c2.06,0,4,.13,5.93.13,2.06.13,4,.64,5.81,1.16,1.55.52,2.71,1.29,3.61,2.32.9,1.16,1.29,2.45,1.29,3.74,0,.9,0,2.06-.26,2.97-.13.9-.64,1.81-1.68,2.58-.52.65-1.42,1.03-2.45,1.29-.9.26-2.06.52-3.35.64-1.16.26-2.32.39-3.61.39h-6.06l-23.87.13-.26,25.28,25.67.26h6.06c1.29,0,2.58,0,3.61.13,1.29.26,2.45.39,3.48.65,1.03.39,1.94.9,2.58,1.42.9.9,1.42,1.68,1.68,2.71.13.77.26,1.81.13,2.84,0,1.42-.39,2.58-1.29,3.74-.9,1.03-2.06,1.93-3.61,2.32-1.81.77-3.74,1.16-5.93,1.16-1.94.13-4,.13-5.93.26h-.77c-6.71.13-13.67.13-20.9,0-6.71-.13-7.35-.13-12.77-.13-1.81.13-3.48-.13-4.9-1.03-.9-.52-1.68-1.29-2.19-2.45-.26-.26-.39-.65-.39-.77-.13-.26-.39-.52-.52-.77-.26-.9-.52-1.81-.52-2.71-.13-.77-.26-1.68-.39-2.58v-2.06c0-.64.13-1.42.13-2.06v-10.06l.26-18.58v-17.16c0-6.19.13-10.45.26-16.12v-.65c.13-1.81.26-3.48.26-5.16.13-1.81.64-3.48,1.42-5.03.64-1.29,1.42-2.45,2.71-3.1,1.29-.77,2.45-1.16,4-1.16.65,0,1.03,0,1.55.13v-.13c6.19,0,6.58,0,13.67-.13,6.84-.13,12.77-.13,19.35,0h.52c1.93.13,4,.13,5.93.26,1.94,0,3.87.52,5.68,1.16,1.42.39,2.71,1.16,3.61,2.19.77,1.16,1.16,2.32,1.16,3.61,0,1.03,0,2.06-.26,2.84-.13,1.03-.65,1.81-1.55,2.71-.64.39-1.42.9-2.45,1.29-1.03.26-2.19.39-3.23.52-1.29.26-2.45.26-3.74.26h-5.81l-25.8.13v.39Z"/><path class="cls-4" d="m229.88,429.32c-5.55,19.35-36.25,26.06-53.79,16.38-5.55-3.1-9.42-7.61-12.13-13.16-1.93-3.87-1.16-10.58,4.26-11.87,3.61-.77,8.9-.13,10.96,4.26,1.81,3.61,5.68,6.71,9.67,8.64,11.35,3.87,24.38-2.06,24.38-12,0-8.13-4.9-10.45-12.25-12.25-8.13-1.68-17.16-1.03-25.03-4.52-15.74-6.58-16.51-28.9-5.16-39.73,5.55-4.9,13.29-6.84,22.58-7.22,10.32-.39,21.67,2.06,27.73,7.22,4.39,3.48,10.32,12.25,3.74,16.25-5.42,3.48-9.93-2.06-13.54-4.64-4.64-3.48-12.38-4.51-18.32-3.87-7.48.9-13.54,4.9-12.9,12.64.39,5.55,6.32,7.35,11.35,8,7.61,1.03,15.61.9,22.96,3.74,7.48,2.97,13.16,8,15.35,14.96,1.68,4.9,1.68,12.51.13,17.16Z"/><path class="cls-4" d="m308.82,365.85c0,1.03-.13,2.19-.26,3.1-.26.9-.77,1.81-1.68,2.71-.77.52-1.81.9-2.84,1.16-1.16.39-2.32.52-3.74.77-1.16.13-2.45.13-3.74.13h-6.58c-3.1.13-6.06.13-9.03.13.26,10.58-.13,23.48-.13,51.86v9.8c0,.77,0,1.29.13,1.93,0,.65,0,1.29-.13,2.06-.13.77-.26,1.68-.39,2.71,0,.77-.26,1.55-.52,2.45-.39.39-.52.65-.52.77l-.39.77c-.52,1.03-1.42,1.81-2.45,2.45-1.81.9-4,1.16-6.32.65-1.42-.13-2.58-.52-3.35-1.16-.77-.77-1.29-1.42-1.68-2.32-.52-1.03-.77-1.81-.9-2.71-.26-.77-.39-1.81-.39-2.45v-66.31c-2.06,0-14.71-.13-17.03-.52-1.03-.13-3.74-.52-5.03-.9-1.94-.52-3.22-1.29-4.26-2.45-.9-1.03-1.42-2.32-1.42-3.74,0-1.03,0-2.06.26-2.97.26-.9.9-1.81,2.06-2.58.65-.52,2.32-1.42,3.74-1.81,1.03-.39,2.45-.64,3.87-.77s2.71-.13,4.26-.13c6.06,0,11.22,0,17.16-.13,9.93-.13,19.87,0,29.67.26,2.19.13,4.26.39,6.32,1.29,1.55.52,2.97,1.29,3.87,2.45.9,1.03,1.42,2.19,1.42,3.48Z"/><path class="cls-4" d="m382.22,444.03c0,1.03-.26,1.93-.9,2.84-.52.77-1.42,1.68-2.58,2.19-2.19,1.29-4.39,1.68-6.84,1.29-1.03-.26-2.19-.77-3.22-1.68-.26-.26-.52-.39-.65-.64-.13-.13-.39-.52-.64-.65-.77-.77-1.29-1.68-1.81-2.45-.39-.77-.77-1.55-1.29-2.45-.39-.65-.77-1.29-.9-1.94-.26-.64-.52-1.42-.64-2.06l-2.71-6.32c-11.74,0-23.74.13-35.47,0l-2.71,6.32c-.26.64-.39,1.42-.65,2.06-.26.65-.52,1.29-.9,1.94-.52.9-.9,1.68-1.42,2.45-.39.77-.9,1.68-1.68,2.45-.26.13-.52.52-.65.65-.13.26-.39.39-.64.64-1.03.9-2.19,1.42-3.23,1.68-2.45.39-4.64,0-6.84-1.29-1.16-.52-2.06-1.42-2.58-2.19-.64-.9-.9-1.81-.9-2.84,0-1.16.13-2.06.26-3.1.13-.77.39-1.68.64-2.32.26-.77.39-1.03.39-1.16l26.83-66.05.77-2.06c.39-1.03.9-1.81,1.29-2.97.39-1.03.77-1.94,1.42-2.97.52-1.03,1.29-1.93,1.93-2.71.65-.77,1.42-1.29,2.19-1.68,2.45-.9,5.93-.9,8.38,0,.77.39,1.55.9,2.19,1.68.65.77,1.29,1.68,1.94,2.71.64,1.03,1.03,1.94,1.42,2.97.39,1.16.9,1.93,1.29,2.97l.77,2.06,26.83,66.05c0,.13.13.39.39,1.16.26.64.52,1.55.65,2.32.13,1.03.26,1.93.26,3.1Zm-30.83-34.7c-2.19-4.9-4.51-10.32-7.09-15.87-.64-1.55-1.42-3.22-2.06-4.77-.52,1.55-1.29,3.22-1.94,4.77-2.58,5.55-4.9,10.96-7.09,15.87l-2.32,5.68h22.83l-2.32-5.68Z"/><path class="cls-4" d="m458.85,446.48c-.39,1.03-1.03,1.68-1.81,2.32-.77.52-1.81,1.03-2.84,1.42-1.29.39-2.58.65-4,.39-1.42-.13-2.58-.65-3.61-1.55-1.55-1.29-2.58-2.45-3.61-4-.77-1.42-1.93-3.1-2.84-5.03l-14.32-27.22c-1.42,0-2.84.13-4.13.26-3.61.26-6.71,0-10.06.13h-2.45v23.35c0,1.29-.13,2.45-.13,3.87,0,.77-.13,2.45-.26,3.61-.26,1.93-1.55,4.13-3.61,5.42-1.81,1.16-4.13,1.42-6.58.9-1.29-.26-2.19-.65-3.22-1.29-.65-.52-1.16-1.42-1.55-2.19-.39-.9-.65-1.93-.9-2.71-.26-.9-.39-1.55-.39-2.45v-73.27c0-1.03.13-2.19.26-3.1.13-1.03.52-2.06.9-2.84.26-.9.64-1.68,1.29-2.19,1.03-1.03,2.97-1.93,7.09-1.81,7.61.13,15.35,0,22.83.39,5.03.26,10.96.9,15.74,2.84,1.42.52,2.97,1.16,4.26,1.81,1.68.9,2.84,1.68,3.87,2.71,5.93,5.42,9.16,13.8,9.16,21.67,0,9.16-4.26,17.67-13.8,21.41-.39.26-1.03.39-1.42.52l11.87,23.86,1.16,2.06c.39.64.9,1.68,1.29,2.45.52.9.9,1.93,1.42,2.84.26,1.03.52,2.19.64,2.97.13.9,0,1.81-.26,2.45Zm-31.99-48.37c6.06,0,12.12-4.64,12.51-10.45.64-8.51-5.16-12.64-13.54-13.03-5.03-.26-11.35-.26-16.64-.26.26,7.09,0,13.8,0,23.74h17.67Z"/></g></svg>